<svg width="1080" height="1920" viewBox="0 0 1080 1920" fill="none" xmlns="http://www.w3.org/2000/svg">
<g clip-path="url(#clip0_9_3576)">
<rect width="1080" height="1920" fill="url(#paint0_linear_9_3576)"/>
<g filter="url(#filter0_f_9_3576)">
<path d="M601.72 1281.06C328.217 1108.58 161.076 1235.89 -1 932V1934H1131V1839.55C1005.22 1668.44 716.9 1353.69 601.72 1281.06Z" fill="url(#paint1_linear_9_3576)"/>
</g>
<g filter="url(#filter1_f_9_3576)">
<path d="M704.812 981.826C348.156 765.245 209.331 854.748 -29.0759 301.253L-152.282 663.089C-54.9054 1258.71 233.002 1267.17 448.978 1382.89C715.346 1525.62 1046.96 1814.81 1195.54 2032.68L1198.33 1545.3C1153.39 1452.03 919.981 1112.49 704.812 981.826Z" fill="url(#paint2_linear_9_3576)"/>
</g>
<g filter="url(#filter2_f_9_3576)">
<path d="M584.618 508.802C313.901 352.852 205.614 180.485 165.595 -115L-114.538 -78.0644C-120.031 -43.8647 -124.896 56.5455 -100.414 184.589C-69.8113 344.644 71.4324 672.96 259.757 833.015C313.116 897.31 463.619 1043.14 638.761 1112.08C857.689 1198.27 862.397 1313.18 1196.67 1543C1215.51 1503.33 1250.35 1284.45 1229.63 1087.46C1203.74 841.223 855.335 664.753 584.618 508.802Z" fill="url(#paint3_linear_9_3576)"/>
</g>
<g filter="url(#filter3_f_9_3576)">
<path d="M883.318 320.404C803.947 265.066 423.557 140.97 382.284 -168L140 -139.27C140 -106.99 147.62 -19.3714 178.098 72.8586C216.196 188.146 417.568 517.407 574.954 626.239C711.559 720.7 1038.48 759.972 1175 1092V626.239C1114.68 549.38 946.815 364.674 883.318 320.404Z" fill="#ECE7C7"/>
</g>
<g filter="url(#filter4_f_9_3576)">
<path d="M728.745 356.382C690.863 301.868 438.314 148.235 432 -50H1076V624C1062.32 615.74 1028.65 585.344 1003.39 529.838C971.824 460.456 766.627 410.897 728.745 356.382Z" fill="#D9F5D9"/>
</g>
<g filter="url(#filter5_f_9_3576)">
<path d="M925.503 455.721C852.745 336.169 647.124 336.169 606 -99H1090V546.581C1059.42 556.145 983.71 551.363 925.503 455.721Z" fill="#B4D6D7"/>
</g>
<g filter="url(#filter6_f_9_3576)">
<path d="M1071.16 504.721C998.255 385.169 792.209 385.169 751 -50H1236V595.581C1205.36 605.145 1129.49 600.363 1071.16 504.721Z" fill="#EBE7C7"/>
</g>
</g>
<defs>
<filter id="filter0_f_9_3576" x="-76.3" y="856.7" width="1282.6" height="1152.6" filterUnits="userSpaceOnUse" color-interpolation-filters="sRGB">
<feFlood flood-opacity="0" result="BackgroundImageFix"/>
<feBlend mode="normal" in="SourceGraphic" in2="BackgroundImageFix" result="shape"/>
<feGaussianBlur stdDeviation="37.65" result="effect1_foregroundBlur_9_3576"/>
</filter>
<filter id="filter1_f_9_3576" x="-227.583" y="225.953" width="1501.21" height="1882.02" filterUnits="userSpaceOnUse" color-interpolation-filters="sRGB">
<feFlood flood-opacity="0" result="BackgroundImageFix"/>
<feBlend mode="normal" in="SourceGraphic" in2="BackgroundImageFix" result="shape"/>
<feGaussianBlur stdDeviation="37.65" result="effect1_foregroundBlur_9_3576"/>
</filter>
<filter id="filter2_f_9_3576" x="-194.3" y="-190.3" width="1505.6" height="1808.6" filterUnits="userSpaceOnUse" color-interpolation-filters="sRGB">
<feFlood flood-opacity="0" result="BackgroundImageFix"/>
<feBlend mode="normal" in="SourceGraphic" in2="BackgroundImageFix" result="shape"/>
<feGaussianBlur stdDeviation="37.65" result="effect1_foregroundBlur_9_3576"/>
</filter>
<filter id="filter3_f_9_3576" x="64.7" y="-243.3" width="1185.6" height="1410.6" filterUnits="userSpaceOnUse" color-interpolation-filters="sRGB">
<feFlood flood-opacity="0" result="BackgroundImageFix"/>
<feBlend mode="normal" in="SourceGraphic" in2="BackgroundImageFix" result="shape"/>
<feGaussianBlur stdDeviation="37.65" result="effect1_foregroundBlur_9_3576"/>
</filter>
<filter id="filter4_f_9_3576" x="356.7" y="-125.3" width="794.6" height="824.6" filterUnits="userSpaceOnUse" color-interpolation-filters="sRGB">
<feFlood flood-opacity="0" result="BackgroundImageFix"/>
<feBlend mode="normal" in="SourceGraphic" in2="BackgroundImageFix" result="shape"/>
<feGaussianBlur stdDeviation="37.65" result="effect1_foregroundBlur_9_3576"/>
</filter>
<filter id="filter5_f_9_3576" x="530.7" y="-174.3" width="634.6" height="799.6" filterUnits="userSpaceOnUse" color-interpolation-filters="sRGB">
<feFlood flood-opacity="0" result="BackgroundImageFix"/>
<feBlend mode="normal" in="SourceGraphic" in2="BackgroundImageFix" result="shape"/>
<feGaussianBlur stdDeviation="37.65" result="effect1_foregroundBlur_9_3576"/>
</filter>
<filter id="filter6_f_9_3576" x="675.7" y="-125.3" width="635.6" height="799.6" filterUnits="userSpaceOnUse" color-interpolation-filters="sRGB">
<feFlood flood-opacity="0" result="BackgroundImageFix"/>
<feBlend mode="normal" in="SourceGraphic" in2="BackgroundImageFix" result="shape"/>
<feGaussianBlur stdDeviation="37.65" result="effect1_foregroundBlur_9_3576"/>
</filter>
<linearGradient id="paint0_linear_9_3576" x1="195.211" y1="580.174" x2="1516.02" y2="1579.87" gradientUnits="userSpaceOnUse">
<stop offset="0.0904175" stop-color="#C6AA69"/>
<stop offset="0.256709" stop-color="#CFBF8E"/>
<stop offset="0.422604" stop-color="#FECECA"/>
<stop offset="0.766496" stop-color="#4A912B"/>
<stop offset="0.9375" stop-color="#E0C86D"/>
</linearGradient>
<linearGradient id="paint1_linear_9_3576" x1="604.253" y1="1437.11" x2="331.071" y2="1974.76" gradientUnits="userSpaceOnUse">
<stop stop-color="#CDEDD2"/>
<stop offset="0.355205" stop-color="#FFEABD"/>
<stop offset="0.581241" stop-color="#D3F6CC"/>
<stop offset="0.810437" stop-color="#C7EAD7"/>
<stop offset="1" stop-color="#B2D4DD"/>
</linearGradient>
<linearGradient id="paint2_linear_9_3576" x1="586.287" y1="994.264" x2="387.359" y2="1467.75" gradientUnits="userSpaceOnUse">
<stop stop-color="#B7DAC6"/>
<stop offset="1" stop-color="#CDEFD2"/>
</linearGradient>
<linearGradient id="paint3_linear_9_3576" x1="481.039" y1="439.035" x2="148.38" y2="826.537" gradientUnits="userSpaceOnUse">
<stop stop-color="#B1D3DA"/>
<stop offset="0.319168" stop-color="#D9EBCD"/>
<stop offset="0.61409" stop-color="#E8E8C7"/>
<stop offset="1" stop-color="#D2F6CC"/>
</linearGradient>
<clipPath id="clip0_9_3576">
<rect width="1080" height="1920" fill="white"/>
</clipPath>
</defs>
</svg>
